<svg class="w-6 h-6" width="24" height="24" viewBox="0 0 24 24" fill="none" xmlns="http://www.w3.org/2000/svg"><path d="M21.0001 4.81895C21.0001 4.33656 20.8079 3.87397 20.4669 3.53282C20.1259 3.19183 19.6639 2.99981 19.1817 2.99962C18.6995 2.99956 18.2357 3.19009 17.8946 3.53087L17.8956 3.53185L4.54791 16.8824C4.43193 16.9981 4.34594 17.1408 4.29791 17.2975L3.24908 20.7486L6.70611 19.7008L6.82037 19.6588C6.93205 19.6093 7.03415 19.5395 7.12115 19.4527L20.4669 6.10509L20.5879 5.9713C20.8531 5.64775 21 5.24091 21.0001 4.81895ZM23.0001 4.81895C22.9999 5.76856 22.6463 6.68195 22.0118 7.38243L21.8809 7.51915L8.53326 20.8688C8.18555 21.2154 7.75786 21.472 7.28815 21.6149L2.93463 22.9352L2.9317 22.9361C2.67259 23.014 2.39721 23.0196 2.13483 22.9537C1.87238 22.8877 1.63206 22.7523 1.44049 22.5611C1.24886 22.3698 1.1124 22.1293 1.04596 21.8668C0.979645 21.6045 0.985155 21.3292 1.06256 21.0699L1.06451 21.066L2.38483 16.7135L2.3858 16.7106L2.44537 16.5367C2.57447 16.1925 2.76594 15.8752 3.00983 15.6002L3.1358 15.4654L16.4805 2.11778L16.6182 1.98692C17.3188 1.35279 18.2322 0.999499 19.1817 0.999619C20.1944 0.999806 21.1659 1.40254 21.8819 2.11876C22.5978 2.835 23.0002 3.80625 23.0001 4.81895Z" fill="#686583" style="fill-opacity:1;"/><path d="M14.293 4.29296C14.6591 3.92685 15.2381 3.90425 15.6309 4.2246L15.707 4.29296L19.707 8.29296L19.7754 8.36913C20.0957 8.76191 20.0731 9.34091 19.707 9.70703C19.3409 10.0731 18.7619 10.0957 18.3691 9.77538L18.293 9.70703L14.293 5.70703L14.2246 5.63085C13.9043 5.23808 13.9268 4.65908 14.293 4.29296Z" fill="#686583" style="fill-opacity:1;"/></svg>