<svg viewBox = "0 0 24 24" width="24" height="24" xmlns="http://www.w3.org/2000/svg"><g transform="matrix(1 0 0 1 12 12)"  ><g style=""   ><g transform="matrix(1 0 0 1 -0.01 -0.01)"  ><path style="stroke: rgb(239,68,68); stroke-width: 2; stroke-dasharray: none; stroke-linecap: round; stroke-dashoffset: 0; stroke-linejoin: round; stroke-miterlimit: 4; fill: none; fill-rule: nonzero; opacity: 1;"  transform=" translate(-11.99, -11.99)" d="M 21.73 18 L 13.73 4 C 13.374877568146424 3.3733790953618894 12.710253913377139 2.9861034428496835 11.99 2.9861034428496835 C 11.269746086622861 2.9861034428496835 10.605122431853577 3.37337909536189 10.25 4.000000000000001 L 2.25 18 C 1.891089158305552 18.621584708257558 1.8927859921325265 19.387833988910444 2.2544462580238687 20.007823016152745 C 2.616106523915211 20.627812043395046 3.282265487314807 21.006458415130567 4 21 L 20 21 C 20.714164800716212 20.99926790896719 21.373747883910358 20.617780865407884 21.730513232550937 19.99911263077104 C 22.087278581191516 19.380444396134195 22.08708296320838 18.61848496822932 21.73 18 Z" stroke-linecap="round" /></g><g transform="matrix(1 0 0 1 0 -1)"  ><path style="stroke: rgb(239,68,68); stroke-width: 2; stroke-dasharray: none; stroke-linecap: round; stroke-dashoffset: 0; stroke-linejoin: round; stroke-miterlimit: 4; fill: none; fill-rule: nonzero; opacity: 1;"  transform=" translate(-12, -11)" d="M 12 9 L 12 13" stroke-linecap="round" /></g><g transform="matrix(1 0 0 1 0 5)"  ><path style="stroke: rgb(239,68,68); stroke-width: 2; stroke-dasharray: none; stroke-linecap: round; stroke-dashoffset: 0; stroke-linejoin: round; stroke-miterlimit: 4; fill: none; fill-rule: nonzero; opacity: 1;"  transform=" translate(-12, -17)" d="M 12 17 L 12.01 17" stroke-linecap="round" /></g></g></g></svg>