<svg width="33" height="12" viewBox="0 0 33 12" fill="none" xmlns="http://www.w3.org/2000/svg">
<path d="M0 12.0002L12 12.0002L12 0.000156164L0 0.000156164L0 12.0002ZM17.1863 11.1602L14.4623 2.52016H15.9503L18.2303 9.75616L20.5403 2.52016H22.0283L19.3043 11.1602L17.1863 11.1602ZM23.0498 11.1602L23.0498 2.52016L24.4958 2.52016L24.4958 11.1602H23.0498ZM26.2931 11.1602L26.2931 2.52016L29.8631 2.52016C29.9471 2.52016 30.0551 2.52416 30.1871 2.53216C30.3191 2.53616 30.4411 2.54816 30.5531 2.56816C31.0531 2.64416 31.4651 2.81016 31.7891 3.06616C32.1171 3.32216 32.3591 3.64616 32.5151 4.03816C32.6751 4.42616 32.7551 4.85816 32.7551 5.33416C32.7551 5.80616 32.6751 6.23816 32.5151 6.63016C32.3551 7.01816 32.1111 7.34016 31.7831 7.59616C31.4591 7.85216 31.0491 8.01816 30.5531 8.09416C30.4411 8.11016 30.3171 8.12216 30.1811 8.13016C30.0491 8.13816 29.9431 8.14216 29.8631 8.14216H27.7391V11.1602H26.2931ZM27.7391 6.79216H29.8031C29.8831 6.79216 29.9731 6.78816 30.0731 6.78016C30.1731 6.77216 30.2651 6.75616 30.3491 6.73216C30.5891 6.67216 30.7771 6.56616 30.9131 6.41416C31.0531 6.26216 31.1511 6.09016 31.2071 5.89816C31.2671 5.70616 31.2971 5.51816 31.2971 5.33416C31.2971 5.15016 31.2671 4.96216 31.2071 4.77016C31.1511 4.57416 31.0531 4.40016 30.9131 4.24816C30.7771 4.09616 30.5891 3.99016 30.3491 3.93016C30.2651 3.90616 30.1731 3.89216 30.0731 3.88816C29.9731 3.88016 29.8831 3.87616 29.8031 3.87616H27.7391V6.79216Z" fill="#9D174D"/>
</svg>
