<svg class="w-6 h-6" width="24" height="24" viewBox="0 0 24 24" fill="none" xmlns="http://www.w3.org/2000/svg"><path d="M7.36919 2.22462C7.76196 1.90427 8.34096 1.92686 8.70708 2.29298C9.07319 2.65909 9.09579 3.2381 8.77544 3.63087L8.70708 3.70704L5.41411 7.00001L8.70708 10.293L8.77544 10.3692C9.09579 10.7619 9.07319 11.3409 8.70708 11.707C8.34096 12.0732 7.76196 12.0958 7.36919 11.7754L7.29302 11.707L3.29302 7.70704C2.90249 7.31652 2.90249 6.6835 3.29302 6.29298L7.29302 2.29298L7.36919 2.22462Z" fill="#686583" style="fill-opacity:1;"/><path d="M20 6C20.5523 6 21 6.44772 21 7C21 7.55228 20.5523 8 20 8H4C3.44772 8 3 7.55228 3 7C3 6.44772 3.44772 6 4 6H20Z" fill="#686583" style="fill-opacity:1;"/><path d="M15.293 12.293C15.6591 11.9269 16.2381 11.9043 16.6309 12.2246L16.7071 12.293L20.7071 16.293L20.7754 16.3692C21.0958 16.7619 21.0732 17.3409 20.7071 17.707L16.7071 21.707C16.3166 22.0976 15.6835 22.0976 15.293 21.707C14.9025 21.3165 14.9025 20.6835 15.293 20.293L18.586 17L15.293 13.707L15.2247 13.6309C14.9043 13.2381 14.9269 12.6591 15.293 12.293Z" fill="#686583" style="fill-opacity:1;"/><path d="M20 16C20.5523 16 21 16.4477 21 17C21 17.5523 20.5523 18 20 18H4C3.44772 18 3 17.5523 3 17C3 16.4477 3.44772 16 4 16H20Z" fill="#686583" style="fill-opacity:1;"/></svg>