<svg class="w-6 h-6" width="24" height="24" viewBox="0 0 24 24" fill="none" xmlns="http://www.w3.org/2000/svg"><path d="M21 8.35438L20.9883 8.20594C20.9657 8.05929 20.9104 7.91847 20.8262 7.79481C20.7139 7.63018 20.5552 7.50232 20.3701 7.4286H20.3682L12.3701 4.22938L12.2793 4.19813C12.0663 4.13615 11.8377 4.14663 11.6299 4.22938L3.63184 7.4286H3.62988C3.44476 7.50232 3.28607 7.63018 3.17383 7.79481C3.06157 7.95964 3.0008 8.15495 3 8.35438V19.9999L3.00488 20.0985C3.02754 20.3275 3.12883 20.5427 3.29297 20.7069C3.48051 20.8945 3.73478 20.9999 4 20.9999H20C20.2652 20.9999 20.5195 20.8945 20.707 20.7069C20.8945 20.5194 21 20.2651 21 19.9999V8.35438ZM23 19.9999C23 20.7955 22.6837 21.5584 22.1211 22.121C21.5585 22.6836 20.7957 22.9999 20 22.9999H4C3.20435 22.9999 2.44152 22.6836 1.87891 22.121C1.38672 21.6288 1.08288 20.9834 1.01465 20.2968L1 19.9999V8.34559L1.00879 8.12293C1.04962 7.60355 1.22585 7.10256 1.52051 6.66981C1.85705 6.17568 2.33337 5.79261 2.88867 5.57117L10.8887 2.37196L10.8896 2.37098L11.1611 2.27821C11.709 2.11861 12.291 2.11861 12.8389 2.27821L13.1104 2.37098L13.1113 2.37196L21.1113 5.57117H21.1104C21.666 5.79256 22.1428 6.17543 22.4795 6.66981C22.8161 7.16412 22.9975 7.74757 23 8.34559V19.9999Z" fill="#686583" style="fill-opacity:1;"/><path d="M18 17C18.5523 17 19 17.4477 19 18C19 18.5523 18.5523 19 18 19H6C5.44772 19 5 18.5523 5 18C5 17.4477 5.44772 17 6 17H18Z" fill="#686583" style="fill-opacity:1;"/><path d="M18 13C18.5523 13 19 13.4477 19 14C19 14.5523 18.5523 15 18 15H6C5.44772 15 5 14.5523 5 14C5 13.4477 5.44772 13 6 13H18Z" fill="#686583" style="fill-opacity:1;"/><path d="M18 9L18.1025 9.00488C18.6067 9.05621 19 9.48232 19 10V22C19 22.5523 18.5523 23 18 23H6C5.44772 23 5 22.5523 5 22V10L5.00488 9.89746C5.05621 9.39333 5.48232 9 6 9H18ZM7 21H17V11H7V21Z" fill="#686583" style="fill-opacity:1;"/></svg>